<svg width="272" height="272" viewBox="0 0 272 272" fill="none" xmlns="http://www.w3.org/2000/svg">
<g clip-path="url(#clip0_482_15)">
<path d="M115.25 260C88.0833 260 66.4167 254.083 50.25 242.25C34.0833 230.25 25.25 213.667 23.75 192.5H67.25C68.75 203.5 73.6667 211.833 82 217.5C90.5 223 102.167 225.75 117 225.75C130.167 225.75 140.083 223.667 146.75 219.5C153.417 215.167 156.75 208.833 156.75 200.5C156.75 194 154.583 188.833 150.25 185C146.083 181.167 139.25 178.25 129.75 176.25L88 167.75C69.1667 163.75 55.0833 157.167 45.75 148C36.4167 138.667 31.75 126.583 31.75 111.75C31.75 92.9167 38.8333 78.1667 53 67.5C67.3333 56.8333 86.75 51.5 111.25 51.5C136.083 51.5 156.083 57.0833 171.25 68.25C186.417 79.4167 194.917 95 196.75 115H153.25C148.417 94.6667 133.667 84.5 109 84.5C97.8333 84.5 89.0833 86.5 82.75 90.5C76.4167 94.5 73.25 100.25 73.25 107.75C73.25 119.25 81.5 126.667 98 130L141.5 139C161.167 143 175.5 149.75 184.5 159.25C193.667 168.583 198.25 181.25 198.25 197.25C198.25 217.083 191 232.5 176.5 243.5C162.167 254.5 141.75 260 115.25 260Z" fill="#FF0000"/>
<path d="M125.25 250C98.0833 250 76.4167 244.083 60.25 232.25C44.0833 220.25 35.25 203.667 33.75 182.5H77.25C78.75 193.5 83.6667 201.833 92 207.5C100.5 213 112.167 215.75 127 215.75C140.167 215.75 150.083 213.667 156.75 209.5C163.417 205.167 166.75 198.833 166.75 190.5C166.75 184 164.583 178.833 160.25 175C156.083 171.167 149.25 168.25 139.75 166.25L98 157.75C79.1667 153.75 65.0833 147.167 55.75 138C46.4167 128.667 41.75 116.583 41.75 101.75C41.75 82.9167 48.8333 68.1667 63 57.5C77.3333 46.8333 96.75 41.5 121.25 41.5C146.083 41.5 166.083 47.0833 181.25 58.25C196.417 69.4167 204.917 85 206.75 105H163.25C158.417 84.6667 143.667 74.5 119 74.5C107.833 74.5 99.0833 76.5 92.75 80.5C86.4167 84.5 83.25 90.25 83.25 97.75C83.25 109.25 91.5 116.667 108 120L151.5 129C171.167 133 185.5 139.75 194.5 149.25C203.667 158.583 208.25 171.25 208.25 187.25C208.25 207.083 201 222.5 186.5 233.5C172.167 244.5 151.75 250 125.25 250Z" fill="#00FF00"/>
<path d="M135.25 240C108.083 240 86.4167 234.083 70.25 222.25C54.0833 210.25 45.25 193.667 43.75 172.5H87.25C88.75 183.5 93.6667 191.833 102 197.5C110.5 203 122.167 205.75 137 205.75C150.167 205.75 160.083 203.667 166.75 199.5C173.417 195.167 176.75 188.833 176.75 180.5C176.75 174 174.583 168.833 170.25 165C166.083 161.167 159.25 158.25 149.75 156.25L108 147.75C89.1667 143.75 75.0833 137.167 65.75 128C56.4167 118.667 51.75 106.583 51.75 91.75C51.75 72.9167 58.8333 58.1667 73 47.5C87.3333 36.8333 106.75 31.5 131.25 31.5C156.083 31.5 176.083 37.0833 191.25 48.25C206.417 59.4167 214.917 75 216.75 95H173.25C168.417 74.6667 153.667 64.5 129 64.5C117.833 64.5 109.083 66.5 102.75 70.5C96.4167 74.5 93.25 80.25 93.25 87.75C93.25 99.25 101.5 106.667 118 110L161.5 119C181.167 123 195.5 129.75 204.5 139.25C213.667 148.583 218.25 161.25 218.25 177.25C218.25 197.083 211 212.5 196.5 223.5C182.167 234.5 161.75 240 135.25 240Z" fill="#0000FF"/>
<path d="M155.25 220C128.083 220 106.417 214.083 90.25 202.25C74.0833 190.25 65.25 173.667 63.75 152.5H107.25C108.75 163.5 113.667 171.833 122 177.5C130.5 183 142.167 185.75 157 185.75C170.167 185.75 180.083 183.667 186.75 179.5C193.417 175.167 196.75 168.833 196.75 160.5C196.75 154 194.583 148.833 190.25 145C186.083 141.167 179.25 138.25 169.75 136.25L128 127.75C109.167 123.75 95.0833 117.167 85.75 108C76.4167 98.6667 71.75 86.5833 71.75 71.75C71.75 52.9167 78.8333 38.1667 93 27.5C107.333 16.8333 126.75 11.5 151.25 11.5C176.083 11.5 196.083 17.0833 211.25 28.25C226.417 39.4167 234.917 55 236.75 75H193.25C188.417 54.6667 173.667 44.5 149 44.5C137.833 44.5 129.083 46.5 122.75 50.5C116.417 54.5 113.25 60.25 113.25 67.75C113.25 79.25 121.5 86.6667 138 90L181.5 99C201.167 103 215.5 109.75 224.5 119.25C233.667 128.583 238.25 141.25 238.25 157.25C238.25 177.083 231 192.5 216.5 203.5C202.167 214.5 181.75 220 155.25 220Z" fill="white"/>
</g>
<defs>
<clipPath id="clip0_482_15">
<rect width="272" height="272" fill="white"/>
</clipPath>
</defs>
</svg>
