<svg width="970" height="305" viewBox="0 0 970 305" fill="none" xmlns="http://www.w3.org/2000/svg">
<g clip-path="url(#clip0_483_22)">
<path d="M109.25 289C82.0833 289 60.4167 283.083 44.25 271.25C28.0833 259.25 19.25 242.667 17.75 221.5H61.25C62.75 232.5 67.6667 240.833 76 246.5C84.5 252 96.1667 254.75 111 254.75C124.167 254.75 134.083 252.667 140.75 248.5C147.417 244.167 150.75 237.833 150.75 229.5C150.75 223 148.583 217.833 144.25 214C140.083 210.167 133.25 207.25 123.75 205.25L82 196.75C63.1667 192.75 49.0833 186.167 39.75 177C30.4167 167.667 25.75 155.583 25.75 140.75C25.75 121.917 32.8333 107.167 47 96.5C61.3333 85.8333 80.75 80.5 105.25 80.5C130.083 80.5 150.083 86.0833 165.25 97.25C180.417 108.417 188.917 124 190.75 144H147.25C142.417 123.667 127.667 113.5 103 113.5C91.8333 113.5 83.0833 115.5 76.75 119.5C70.4167 123.5 67.25 129.25 67.25 136.75C67.25 148.25 75.5 155.667 92 159L135.5 168C155.167 172 169.5 178.75 178.5 188.25C187.667 197.583 192.25 210.25 192.25 226.25C192.25 246.083 185 261.5 170.5 272.5C156.167 283.5 135.75 289 109.25 289ZM400.945 286H253.195V83.5H400.945V120.5H295.445V163H392.695V199H295.445V249H400.945V286ZM544.836 289C517.669 289 496.003 283.083 479.836 271.25C463.669 259.25 454.836 242.667 453.336 221.5H496.836C498.336 232.5 503.253 240.833 511.586 246.5C520.086 252 531.753 254.75 546.586 254.75C559.753 254.75 569.669 252.667 576.336 248.5C583.003 244.167 586.336 237.833 586.336 229.5C586.336 223 584.169 217.833 579.836 214C575.669 210.167 568.836 207.25 559.336 205.25L517.586 196.75C498.753 192.75 484.669 186.167 475.336 177C466.003 167.667 461.336 155.583 461.336 140.75C461.336 121.917 468.419 107.167 482.586 96.5C496.919 85.8333 516.336 80.5 540.836 80.5C565.669 80.5 585.669 86.0833 600.836 97.25C616.003 108.417 624.503 124 626.336 144H582.836C578.003 123.667 563.253 113.5 538.586 113.5C527.419 113.5 518.669 115.5 512.336 119.5C506.003 123.5 502.836 129.25 502.836 136.75C502.836 148.25 511.086 155.667 527.586 159L571.086 168C590.753 172 605.086 178.75 614.086 188.25C623.253 197.583 627.836 210.25 627.836 226.25C627.836 246.083 620.586 261.5 606.086 272.5C591.753 283.5 571.336 289 544.836 289ZM688.781 286V83.5H731.031V162.5H830.531V83.5H872.781V286H830.531V199.5H731.031V286H688.781Z" fill="#FF0000"/>
<path d="M124.25 272C97.0833 272 75.4167 266.083 59.25 254.25C43.0833 242.25 34.25 225.667 32.75 204.5H76.25C77.75 215.5 82.6667 223.833 91 229.5C99.5 235 111.167 237.75 126 237.75C139.167 237.75 149.083 235.667 155.75 231.5C162.417 227.167 165.75 220.833 165.75 212.5C165.75 206 163.583 200.833 159.25 197C155.083 193.167 148.25 190.25 138.75 188.25L97 179.75C78.1667 175.75 64.0833 169.167 54.75 160C45.4167 150.667 40.75 138.583 40.75 123.75C40.75 104.917 47.8333 90.1667 62 79.5C76.3333 68.8333 95.75 63.5 120.25 63.5C145.083 63.5 165.083 69.0833 180.25 80.25C195.417 91.4167 203.917 107 205.75 127H162.25C157.417 106.667 142.667 96.5 118 96.5C106.833 96.5 98.0833 98.5 91.75 102.5C85.4167 106.5 82.25 112.25 82.25 119.75C82.25 131.25 90.5 138.667 107 142L150.5 151C170.167 155 184.5 161.75 193.5 171.25C202.667 180.583 207.25 193.25 207.25 209.25C207.25 229.083 200 244.5 185.5 255.5C171.167 266.5 150.75 272 124.25 272ZM415.945 269H268.195V66.5H415.945V103.5H310.445V146H407.695V182H310.445V232H415.945V269ZM559.836 272C532.669 272 511.003 266.083 494.836 254.25C478.669 242.25 469.836 225.667 468.336 204.5H511.836C513.336 215.5 518.253 223.833 526.586 229.5C535.086 235 546.753 237.75 561.586 237.75C574.753 237.75 584.669 235.667 591.336 231.5C598.003 227.167 601.336 220.833 601.336 212.5C601.336 206 599.169 200.833 594.836 197C590.669 193.167 583.836 190.25 574.336 188.25L532.586 179.75C513.753 175.75 499.669 169.167 490.336 160C481.003 150.667 476.336 138.583 476.336 123.75C476.336 104.917 483.419 90.1667 497.586 79.5C511.919 68.8333 531.336 63.5 555.836 63.5C580.669 63.5 600.669 69.0833 615.836 80.25C631.003 91.4167 639.503 107 641.336 127H597.836C593.003 106.667 578.253 96.5 553.586 96.5C542.419 96.5 533.669 98.5 527.336 102.5C521.003 106.5 517.836 112.25 517.836 119.75C517.836 131.25 526.086 138.667 542.586 142L586.086 151C605.753 155 620.086 161.75 629.086 171.25C638.253 180.583 642.836 193.25 642.836 209.25C642.836 229.083 635.586 244.5 621.086 255.5C606.753 266.5 586.336 272 559.836 272ZM703.781 269V66.5H746.031V145.5H845.531V66.5H887.781V269H845.531V182.5H746.031V269H703.781Z" fill="#00FF00"/>
<path d="M139.25 255C112.083 255 90.4167 249.083 74.25 237.25C58.0833 225.25 49.25 208.667 47.75 187.5H91.25C92.75 198.5 97.6667 206.833 106 212.5C114.5 218 126.167 220.75 141 220.75C154.167 220.75 164.083 218.667 170.75 214.5C177.417 210.167 180.75 203.833 180.75 195.5C180.75 189 178.583 183.833 174.25 180C170.083 176.167 163.25 173.25 153.75 171.25L112 162.75C93.1667 158.75 79.0833 152.167 69.75 143C60.4167 133.667 55.75 121.583 55.75 106.75C55.75 87.9167 62.8333 73.1667 77 62.5C91.3333 51.8333 110.75 46.5 135.25 46.5C160.083 46.5 180.083 52.0833 195.25 63.25C210.417 74.4167 218.917 90 220.75 110H177.25C172.417 89.6667 157.667 79.5 133 79.5C121.833 79.5 113.083 81.5 106.75 85.5C100.417 89.5 97.25 95.25 97.25 102.75C97.25 114.25 105.5 121.667 122 125L165.5 134C185.167 138 199.5 144.75 208.5 154.25C217.667 163.583 222.25 176.25 222.25 192.25C222.25 212.083 215 227.5 200.5 238.5C186.167 249.5 165.75 255 139.25 255ZM430.945 252H283.195V49.5H430.945V86.5H325.445V129H422.695V165H325.445V215H430.945V252ZM574.836 255C547.669 255 526.003 249.083 509.836 237.25C493.669 225.25 484.836 208.667 483.336 187.5H526.836C528.336 198.5 533.253 206.833 541.586 212.5C550.086 218 561.753 220.75 576.586 220.75C589.753 220.75 599.669 218.667 606.336 214.5C613.003 210.167 616.336 203.833 616.336 195.5C616.336 189 614.169 183.833 609.836 180C605.669 176.167 598.836 173.25 589.336 171.25L547.586 162.75C528.753 158.75 514.669 152.167 505.336 143C496.003 133.667 491.336 121.583 491.336 106.75C491.336 87.9167 498.419 73.1667 512.586 62.5C526.919 51.8333 546.336 46.5 570.836 46.5C595.669 46.5 615.669 52.0833 630.836 63.25C646.003 74.4167 654.503 90 656.336 110H612.836C608.003 89.6667 593.253 79.5 568.586 79.5C557.419 79.5 548.669 81.5 542.336 85.5C536.003 89.5 532.836 95.25 532.836 102.75C532.836 114.25 541.086 121.667 557.586 125L601.086 134C620.753 138 635.086 144.75 644.086 154.25C653.253 163.583 657.836 176.25 657.836 192.25C657.836 212.083 650.586 227.5 636.086 238.5C621.753 249.5 601.336 255 574.836 255ZM718.781 252V49.5H761.031V128.5H860.531V49.5H902.781V252H860.531V165.5H761.031V252H718.781Z" fill="#0000FF"/>
<path d="M154.25 238C127.083 238 105.417 232.083 89.25 220.25C73.0833 208.25 64.25 191.667 62.75 170.5H106.25C107.75 181.5 112.667 189.833 121 195.5C129.5 201 141.167 203.75 156 203.75C169.167 203.75 179.083 201.667 185.75 197.5C192.417 193.167 195.75 186.833 195.75 178.5C195.75 172 193.583 166.833 189.25 163C185.083 159.167 178.25 156.25 168.75 154.25L127 145.75C108.167 141.75 94.0833 135.167 84.75 126C75.4167 116.667 70.75 104.583 70.75 89.75C70.75 70.9167 77.8333 56.1667 92 45.5C106.333 34.8333 125.75 29.5 150.25 29.5C175.083 29.5 195.083 35.0833 210.25 46.25C225.417 57.4167 233.917 73 235.75 93H192.25C187.417 72.6667 172.667 62.5 148 62.5C136.833 62.5 128.083 64.5 121.75 68.5C115.417 72.5 112.25 78.25 112.25 85.75C112.25 97.25 120.5 104.667 137 108L180.5 117C200.167 121 214.5 127.75 223.5 137.25C232.667 146.583 237.25 159.25 237.25 175.25C237.25 195.083 230 210.5 215.5 221.5C201.167 232.5 180.75 238 154.25 238ZM445.945 235H298.195V32.5H445.945V69.5H340.445V112H437.695V148H340.445V198H445.945V235ZM589.836 238C562.669 238 541.003 232.083 524.836 220.25C508.669 208.25 499.836 191.667 498.336 170.5H541.836C543.336 181.5 548.253 189.833 556.586 195.5C565.086 201 576.753 203.75 591.586 203.75C604.753 203.75 614.669 201.667 621.336 197.5C628.003 193.167 631.336 186.833 631.336 178.5C631.336 172 629.169 166.833 624.836 163C620.669 159.167 613.836 156.25 604.336 154.25L562.586 145.75C543.753 141.75 529.669 135.167 520.336 126C511.003 116.667 506.336 104.583 506.336 89.75C506.336 70.9167 513.419 56.1667 527.586 45.5C541.919 34.8333 561.336 29.5 585.836 29.5C610.669 29.5 630.669 35.0833 645.836 46.25C661.003 57.4167 669.503 73 671.336 93H627.836C623.003 72.6667 608.253 62.5 583.586 62.5C572.419 62.5 563.669 64.5 557.336 68.5C551.003 72.5 547.836 78.25 547.836 85.75C547.836 97.25 556.086 104.667 572.586 108L616.086 117C635.753 121 650.086 127.75 659.086 137.25C668.253 146.583 672.836 159.25 672.836 175.25C672.836 195.083 665.586 210.5 651.086 221.5C636.753 232.5 616.336 238 589.836 238ZM733.781 235V32.5H776.031V111.5H875.531V32.5H917.781V235H875.531V148.5H776.031V235H733.781Z" fill="white"/>
</g>
<defs>
<clipPath id="clip0_483_22">
<rect width="970" height="305" fill="white"/>
</clipPath>
</defs>
</svg>
