<svg width="970" height="305" viewBox="0 0 970 305" fill="none" xmlns="http://www.w3.org/2000/svg">
<g clip-path="url(#clip0_483_22)">
<path d="M109.25 288C82.0833 288 60.4167 282.083 44.25 270.25C28.0833 258.25 19.25 241.667 17.75 220.5H61.25C62.75 231.5 67.6667 239.833 76 245.5C84.5 251 96.1667 253.75 111 253.75C124.167 253.75 134.083 251.667 140.75 247.5C147.417 243.167 150.75 236.833 150.75 228.5C150.75 222 148.583 216.833 144.25 213C140.083 209.167 133.25 206.25 123.75 204.25L82 195.75C63.1667 191.75 49.0833 185.167 39.75 176C30.4167 166.667 25.75 154.583 25.75 139.75C25.75 120.917 32.8333 106.167 47 95.5C61.3333 84.8333 80.75 79.5 105.25 79.5C130.083 79.5 150.083 85.0833 165.25 96.25C180.417 107.417 188.917 123 190.75 143H147.25C142.417 122.667 127.667 112.5 103 112.5C91.8333 112.5 83.0833 114.5 76.75 118.5C70.4167 122.5 67.25 128.25 67.25 135.75C67.25 147.25 75.5 154.667 92 158L135.5 167C155.167 171 169.5 177.75 178.5 187.25C187.667 196.583 192.25 209.25 192.25 225.25C192.25 245.083 185 260.5 170.5 271.5C156.167 282.5 135.75 288 109.25 288ZM400.945 285H253.195V82.5H400.945V119.5H295.445V162H392.695V198H295.445V248H400.945V285ZM544.836 288C517.669 288 496.003 282.083 479.836 270.25C463.669 258.25 454.836 241.667 453.336 220.5H496.836C498.336 231.5 503.253 239.833 511.586 245.5C520.086 251 531.753 253.75 546.586 253.75C559.753 253.75 569.669 251.667 576.336 247.5C583.003 243.167 586.336 236.833 586.336 228.5C586.336 222 584.169 216.833 579.836 213C575.669 209.167 568.836 206.25 559.336 204.25L517.586 195.75C498.753 191.75 484.669 185.167 475.336 176C466.003 166.667 461.336 154.583 461.336 139.75C461.336 120.917 468.419 106.167 482.586 95.5C496.919 84.8333 516.336 79.5 540.836 79.5C565.669 79.5 585.669 85.0833 600.836 96.25C616.003 107.417 624.503 123 626.336 143H582.836C578.003 122.667 563.253 112.5 538.586 112.5C527.419 112.5 518.669 114.5 512.336 118.5C506.003 122.5 502.836 128.25 502.836 135.75C502.836 147.25 511.086 154.667 527.586 158L571.086 167C590.753 171 605.086 177.75 614.086 187.25C623.253 196.583 627.836 209.25 627.836 225.25C627.836 245.083 620.586 260.5 606.086 271.5C591.753 282.5 571.336 288 544.836 288ZM688.781 285V82.5H731.031V161.5H830.531V82.5H872.781V285H830.531V198.5H731.031V285H688.781Z" fill="#FF0000"/>
<path d="M124.25 273C97.0833 273 75.4167 267.083 59.25 255.25C43.0833 243.25 34.25 226.667 32.75 205.5H76.25C77.75 216.5 82.6667 224.833 91 230.5C99.5 236 111.167 238.75 126 238.75C139.167 238.75 149.083 236.667 155.75 232.5C162.417 228.167 165.75 221.833 165.75 213.5C165.75 207 163.583 201.833 159.25 198C155.083 194.167 148.25 191.25 138.75 189.25L97 180.75C78.1667 176.75 64.0833 170.167 54.75 161C45.4167 151.667 40.75 139.583 40.75 124.75C40.75 105.917 47.8333 91.1667 62 80.5C76.3333 69.8333 95.75 64.5 120.25 64.5C145.083 64.5 165.083 70.0833 180.25 81.25C195.417 92.4167 203.917 108 205.75 128H162.25C157.417 107.667 142.667 97.5 118 97.5C106.833 97.5 98.0833 99.5 91.75 103.5C85.4167 107.5 82.25 113.25 82.25 120.75C82.25 132.25 90.5 139.667 107 143L150.5 152C170.167 156 184.5 162.75 193.5 172.25C202.667 181.583 207.25 194.25 207.25 210.25C207.25 230.083 200 245.5 185.5 256.5C171.167 267.5 150.75 273 124.25 273ZM415.945 270H268.195V67.5H415.945V104.5H310.445V147H407.695V183H310.445V233H415.945V270ZM559.836 273C532.669 273 511.003 267.083 494.836 255.25C478.669 243.25 469.836 226.667 468.336 205.5H511.836C513.336 216.5 518.253 224.833 526.586 230.5C535.086 236 546.753 238.75 561.586 238.75C574.753 238.75 584.669 236.667 591.336 232.5C598.003 228.167 601.336 221.833 601.336 213.5C601.336 207 599.169 201.833 594.836 198C590.669 194.167 583.836 191.25 574.336 189.25L532.586 180.75C513.753 176.75 499.669 170.167 490.336 161C481.003 151.667 476.336 139.583 476.336 124.75C476.336 105.917 483.419 91.1667 497.586 80.5C511.919 69.8333 531.336 64.5 555.836 64.5C580.669 64.5 600.669 70.0833 615.836 81.25C631.003 92.4167 639.503 108 641.336 128H597.836C593.003 107.667 578.253 97.5 553.586 97.5C542.419 97.5 533.669 99.5 527.336 103.5C521.003 107.5 517.836 113.25 517.836 120.75C517.836 132.25 526.086 139.667 542.586 143L586.086 152C605.753 156 620.086 162.75 629.086 172.25C638.253 181.583 642.836 194.25 642.836 210.25C642.836 230.083 635.586 245.5 621.086 256.5C606.753 267.5 586.336 273 559.836 273ZM703.781 270V67.5H746.031V146.5H845.531V67.5H887.781V270H845.531V183.5H746.031V270H703.781Z" fill="#00FF00"/>
<path d="M139.25 258C112.083 258 90.4167 252.083 74.25 240.25C58.0833 228.25 49.25 211.667 47.75 190.5H91.25C92.75 201.5 97.6667 209.833 106 215.5C114.5 221 126.167 223.75 141 223.75C154.167 223.75 164.083 221.667 170.75 217.5C177.417 213.167 180.75 206.833 180.75 198.5C180.75 192 178.583 186.833 174.25 183C170.083 179.167 163.25 176.25 153.75 174.25L112 165.75C93.1667 161.75 79.0833 155.167 69.75 146C60.4167 136.667 55.75 124.583 55.75 109.75C55.75 90.9167 62.8333 76.1667 77 65.5C91.3333 54.8333 110.75 49.5 135.25 49.5C160.083 49.5 180.083 55.0833 195.25 66.25C210.417 77.4167 218.917 93 220.75 113H177.25C172.417 92.6667 157.667 82.5 133 82.5C121.833 82.5 113.083 84.5 106.75 88.5C100.417 92.5 97.25 98.25 97.25 105.75C97.25 117.25 105.5 124.667 122 128L165.5 137C185.167 141 199.5 147.75 208.5 157.25C217.667 166.583 222.25 179.25 222.25 195.25C222.25 215.083 215 230.5 200.5 241.5C186.167 252.5 165.75 258 139.25 258ZM430.945 255H283.195V52.5H430.945V89.5H325.445V132H422.695V168H325.445V218H430.945V255ZM574.836 258C547.669 258 526.003 252.083 509.836 240.25C493.669 228.25 484.836 211.667 483.336 190.5H526.836C528.336 201.5 533.253 209.833 541.586 215.5C550.086 221 561.753 223.75 576.586 223.75C589.753 223.75 599.669 221.667 606.336 217.5C613.003 213.167 616.336 206.833 616.336 198.5C616.336 192 614.169 186.833 609.836 183C605.669 179.167 598.836 176.25 589.336 174.25L547.586 165.75C528.753 161.75 514.669 155.167 505.336 146C496.003 136.667 491.336 124.583 491.336 109.75C491.336 90.9167 498.419 76.1667 512.586 65.5C526.919 54.8333 546.336 49.5 570.836 49.5C595.669 49.5 615.669 55.0833 630.836 66.25C646.003 77.4167 654.503 93 656.336 113H612.836C608.003 92.6667 593.253 82.5 568.586 82.5C557.419 82.5 548.669 84.5 542.336 88.5C536.003 92.5 532.836 98.25 532.836 105.75C532.836 117.25 541.086 124.667 557.586 128L601.086 137C620.753 141 635.086 147.75 644.086 157.25C653.253 166.583 657.836 179.25 657.836 195.25C657.836 215.083 650.586 230.5 636.086 241.5C621.753 252.5 601.336 258 574.836 258ZM718.781 255V52.5H761.031V131.5H860.531V52.5H902.781V255H860.531V168.5H761.031V255H718.781Z" fill="#0000FF"/>
<path d="M164.25 233C137.083 233 115.417 227.083 99.25 215.25C83.0833 203.25 74.25 186.667 72.75 165.5H116.25C117.75 176.5 122.667 184.833 131 190.5C139.5 196 151.167 198.75 166 198.75C179.167 198.75 189.083 196.667 195.75 192.5C202.417 188.167 205.75 181.833 205.75 173.5C205.75 167 203.583 161.833 199.25 158C195.083 154.167 188.25 151.25 178.75 149.25L137 140.75C118.167 136.75 104.083 130.167 94.75 121C85.4167 111.667 80.75 99.5833 80.75 84.75C80.75 65.9167 87.8333 51.1667 102 40.5C116.333 29.8333 135.75 24.5 160.25 24.5C185.083 24.5 205.083 30.0833 220.25 41.25C235.417 52.4167 243.917 68 245.75 88H202.25C197.417 67.6667 182.667 57.5 158 57.5C146.833 57.5 138.083 59.5 131.75 63.5C125.417 67.5 122.25 73.25 122.25 80.75C122.25 92.25 130.5 99.6667 147 103L190.5 112C210.167 116 224.5 122.75 233.5 132.25C242.667 141.583 247.25 154.25 247.25 170.25C247.25 190.083 240 205.5 225.5 216.5C211.167 227.5 190.75 233 164.25 233ZM455.945 230H308.195V27.5H455.945V64.5H350.445V107H447.695V143H350.445V193H455.945V230ZM599.836 233C572.669 233 551.003 227.083 534.836 215.25C518.669 203.25 509.836 186.667 508.336 165.5H551.836C553.336 176.5 558.253 184.833 566.586 190.5C575.086 196 586.753 198.75 601.586 198.75C614.753 198.75 624.669 196.667 631.336 192.5C638.003 188.167 641.336 181.833 641.336 173.5C641.336 167 639.169 161.833 634.836 158C630.669 154.167 623.836 151.25 614.336 149.25L572.586 140.75C553.753 136.75 539.669 130.167 530.336 121C521.003 111.667 516.336 99.5833 516.336 84.75C516.336 65.9167 523.419 51.1667 537.586 40.5C551.919 29.8333 571.336 24.5 595.836 24.5C620.669 24.5 640.669 30.0833 655.836 41.25C671.003 52.4167 679.503 68 681.336 88H637.836C633.003 67.6667 618.253 57.5 593.586 57.5C582.419 57.5 573.669 59.5 567.336 63.5C561.003 67.5 557.836 73.25 557.836 80.75C557.836 92.25 566.086 99.6667 582.586 103L626.086 112C645.753 116 660.086 122.75 669.086 132.25C678.253 141.583 682.836 154.25 682.836 170.25C682.836 190.083 675.586 205.5 661.086 216.5C646.753 227.5 626.336 233 599.836 233ZM743.781 230V27.5H786.031V106.5H885.531V27.5H927.781V230H885.531V143.5H786.031V230H743.781Z" fill="white"/>
</g>
<defs>
<clipPath id="clip0_483_22">
<rect width="970" height="305" fill="white"/>
</clipPath>
</defs>
</svg>
